<svg width="25" height="24" viewBox="0 0 25 24" fill="none" xmlns="http://www.w3.org/2000/svg">
<path d="M7.5 7.13193V6.61204C7.5 4.46614 7.5 3.3932 8.1896 2.79511C8.87919 2.19703 9.94136 2.34877 12.0657 2.65224L16.3485 3.26408C18.8047 3.61495 20.0327 3.79039 20.7664 4.63628C21.5 5.48217 21.5 6.72271 21.5 9.20377V14.7962C21.5 17.2773 21.5 18.5178 20.7664 19.3637C20.0327 20.2096 18.8047 20.385 16.3485 20.7359L12.0657 21.3478C9.94136 21.6512 8.87919 21.803 8.1896 21.2049C7.5 20.6068 7.5 19.5339 7.5 17.388V17.066" stroke="#F2F2F2" stroke-width="2"/>
<path d="M16.5 12L17.2809 11.3753L17.7806 12L17.2809 12.6247L16.5 12ZM4.5 13C3.94771 13 3.5 12.5523 3.5 12C3.5 11.4477 3.94771 11 4.5 11V13ZM13.2809 6.3753L17.2809 11.3753L15.7191 12.6247L11.7191 7.6247L13.2809 6.3753ZM17.2809 12.6247L13.2809 17.6247L11.7191 16.3753L15.7191 11.3753L17.2809 12.6247ZM16.5 13H4.5V11H16.5V13Z" fill="#F2F2F2"/>
</svg>
