<svg width="26" height="27" viewBox="0 0 26 27" fill="none" xmlns="http://www.w3.org/2000/svg">
<path d="M13.0003 24.25C17.6589 24.25 21.5837 20.7627 21.5837 16.2857C21.5837 13.4993 20.1549 10.7296 18.6097 8.52366C17.0452 6.28997 15.2539 4.4844 14.3191 3.60035C13.5742 2.89598 12.4264 2.89597 11.6816 3.60035C10.7467 4.4844 8.95548 6.28997 7.39091 8.52366C5.84576 10.7296 4.41699 13.4993 4.41699 16.2857C4.41699 20.7627 8.34175 24.25 13.0003 24.25Z" stroke="current" stroke-width="2"/>
<path d="M13.0003 20.0002C12.4313 20.0002 11.8678 19.8881 11.342 19.6703C10.8163 19.4525 10.3386 19.1333 9.9362 18.731C9.53381 18.3286 9.21462 17.8509 8.99685 17.3251C8.77908 16.7994 8.66699 16.2359 8.66699 15.6668" stroke="current" stroke-width="2" stroke-linecap="round"/>
</svg>
