<svg width="26" height="27" viewBox="0 0 26 27" fill="none" xmlns="http://www.w3.org/2000/svg">
<path d="M2.16699 9.9165C2.16699 8.03089 2.16699 7.08808 2.75278 6.50229C3.33857 5.9165 4.28137 5.9165 6.16699 5.9165H19.8337C21.7193 5.9165 22.6621 5.9165 23.2479 6.50229C23.8337 7.08808 23.8337 8.03089 23.8337 9.9165V10.3332C23.8337 10.8046 23.8337 11.0403 23.6872 11.1867C23.5408 11.3332 23.3051 11.3332 22.8337 11.3332H3.16699C2.69559 11.3332 2.45989 11.3332 2.31344 11.1867C2.16699 11.0403 2.16699 10.8046 2.16699 10.3332V9.9165Z" fill="current"/>
<path d="M2.16699 20.3335C2.16699 22.2191 2.16699 23.1619 2.75278 23.7477C3.33857 24.3335 4.28137 24.3335 6.16699 24.3335H19.8337C21.7193 24.3335 22.6621 24.3335 23.2479 23.7477C23.8337 23.1619 23.8337 22.2191 23.8337 20.3335V14.5002C23.8337 14.0288 23.8337 13.7931 23.6872 13.6466C23.5408 13.5002 23.3051 13.5002 22.8337 13.5002H3.16699C2.69559 13.5002 2.45989 13.5002 2.31344 13.6466C2.16699 13.7931 2.16699 14.0288 2.16699 14.5002V20.3335Z" fill="current"/>
<path d="M7.58301 3.75L7.58301 7" stroke="current" stroke-width="2" stroke-linecap="round"/>
<path d="M18.417 3.75L18.417 7" stroke="current" stroke-width="2" stroke-linecap="round"/>
</svg>
