<svg width="20" height="16" viewBox="0 0 20 16" fill="none" xmlns="http://www.w3.org/2000/svg">
<path fill-rule="evenodd" clip-rule="evenodd" d="M1.12868 1.29518C0.25 2.17386 0.25 3.58808 0.25 6.41651V9.58317C0.25 12.4116 0.25 13.8258 1.12868 14.7045C2.00736 15.5832 3.42157 15.5832 6.25 15.5832H13.75C16.5784 15.5832 17.9926 15.5832 18.8713 14.7045C19.75 13.8258 19.75 12.4116 19.75 9.58317V6.4165C19.75 3.58808 19.75 2.17386 18.8713 1.29518C17.9926 0.416504 16.5784 0.416504 13.75 0.416504H6.25C3.42157 0.416504 2.00736 0.416504 1.12868 1.29518ZM4.0547 3.91779C3.59517 3.61143 2.9743 3.73561 2.66795 4.19514C2.3616 4.65467 2.48577 5.27554 2.9453 5.58189L8.8906 9.54542C9.5624 9.99329 10.4376 9.99329 11.1094 9.54542L17.0547 5.58189C17.5142 5.27554 17.6384 4.65467 17.3321 4.19514C17.0257 3.73561 16.4048 3.61143 15.9453 3.91779L10 7.88132L4.0547 3.91779Z" fill="current"/>
</svg>
