<svg width="26" height="27" viewBox="0 0 26 27" fill="none" xmlns="http://www.w3.org/2000/svg">
<path d="M22.75 11.3332L22.75 10.2498C22.75 9.24237 22.75 8.73863 22.6393 8.32534C22.3387 7.20379 21.4627 6.32776 20.3412 6.02724C19.9279 5.9165 19.4241 5.9165 18.4167 5.9165" stroke="#949E99" stroke-width="2" stroke-linejoin="round"/>
<path d="M3.25 11.3332L3.25 10.2498C3.25 9.24237 3.25 8.73863 3.36074 8.32534C3.66126 7.20379 4.53729 6.32776 5.65884 6.02724C6.07213 5.9165 6.57586 5.9165 7.58333 5.9165" stroke="#949E99" stroke-width="2" stroke-linejoin="round"/>
<path d="M22.75 15.6665L22.75 16.7498C22.75 17.7573 22.75 18.261 22.6393 18.6743C22.3387 19.7959 21.4627 20.6719 20.3412 20.9724C19.9279 21.0832 19.4241 21.0832 18.4167 21.0832" stroke="#949E99" stroke-width="2" stroke-linejoin="round"/>
<path d="M3.25 15.6665L3.25 16.7498C3.25 17.7573 3.25 18.261 3.36074 18.6743C3.66126 19.7959 4.53729 20.6719 5.65884 20.9724C6.07213 21.0832 6.57586 21.0832 7.58333 21.0832" stroke="#949E99" stroke-width="2" stroke-linejoin="round"/>
<path d="M13 16.75L13 10.25" stroke="#949E99" stroke-width="2" stroke-linecap="round" stroke-linejoin="round"/>
<path d="M8.66699 15.6668L8.66699 11.3335" stroke="#949E99" stroke-width="2" stroke-linecap="round" stroke-linejoin="round"/>
<path d="M17.333 15.6668L17.333 11.3335" stroke="#949E99" stroke-width="2" stroke-linecap="round" stroke-linejoin="round"/>
</svg>
