<svg width="10" height="13" viewBox="0 0 10 13" fill="none" xmlns="http://www.w3.org/2000/svg">
<path d="M0.5 12.5V0.863636H5.52273C6.38636 0.863636 7.14205 1.03409 7.78977 1.375C8.4375 1.71591 8.94129 2.19508 9.30114 2.8125C9.66098 3.42992 9.84091 4.15151 9.84091 4.97727C9.84091 5.81061 9.6553 6.5322 9.28409 7.14205C8.91667 7.75189 8.39962 8.22159 7.73295 8.55114C7.07008 8.88068 6.29545 9.04545 5.40909 9.04545H2.40909V6.59091H4.77273C5.14394 6.59091 5.46023 6.52652 5.72159 6.39773C5.98674 6.26515 6.18939 6.07765 6.32955 5.83523C6.47349 5.5928 6.54545 5.30682 6.54545 4.97727C6.54545 4.64394 6.47349 4.35985 6.32955 4.125C6.18939 3.88636 5.98674 3.70455 5.72159 3.57955C5.46023 3.45076 5.14394 3.38636 4.77273 3.38636H3.65909V12.5H0.5Z" fill="current"/>
</svg>
